<?xml version="1.0" encoding="utf-8"?>
<!-- Generator: Adobe Illustrator 23.0.1, SVG Export Plug-In . SVG Version: 6.00 Build 0)  -->
<svg version="1.1" id="katman_1" xmlns="http://www.w3.org/2000/svg" xmlns:xlink="http://www.w3.org/1999/xlink" x="0px" y="0px"
	 viewBox="0 0 501.3 94" style="enable-background:new 0 0 501.3 94;" xml:space="preserve">
<style type="text/css">
	.st0{fill:#FFFFFF;}
	.st1{fill:#010202;}
</style>
<g>
	<g>
		<path class="st0" d="M486.3,35.4l8.8-14.7L490.2,5h-337l-1.6,11.5L148.5,5H70l-2.7,10.8h-6.5l-1.5,6L50.6,5H25L5.5,67.6L21,88.9
			h25.6l3.1-11.8H60l6.9,11.8h78.9l1.9-13.7l4.4,13.7h263.6l10.7-22.1h9.6l9-17.5l9.6,39.7h26.5l14.7-21.4L486.3,35.4z M258.6,50.3
			v-7.5h22.7l0.2,7.5H258.6z"/>
		<path class="st0" d="M483.8,94h-33.1l-7.4-30.5l-4.2,8.3h-9.5l-10.7,22.1H64.1l-6.9-11.8h-3.6l-3.1,11.8h-32L0,68.5L21.3,0h32.3
			l5.6,10.8h4.2L66.1,0h427.8l6.7,21.3l-8.8,14.7l9.6,32.4L483.8,94z M458.6,84h19.9l11.9-17.3l-9.4-32l8.8-14.7L486.5,10h-329
			l-4.4,31.5L144.7,10H73.9l-2.7,10.8h-6.5l-3.8,15L47.6,10H28.7L11,66.7l12.5,17.2h19.2l3.1-11.8h17l6.9,11.8h71.7l4.3-31.1
			l10,31.1h256.8l10.7-22.1h9.7l13.8-26.7L458.6,84z M286.7,55.3h-33V37.8h32.6L286.7,55.3z"/>
	</g>
	<g>
		<path class="st1" d="M486.3,35.4l8.8-14.7L490.2,5h-337l-1.6,11.5L148.5,5H70l-2.7,10.8h-6.5l-1.5,6L50.6,5H25L5.5,67.6L21,88.9
			h25.6l3.1-11.8H60l6.9,11.8h78.9l1.9-13.7l4.4,13.7h263.6l10.7-22.1h9.6l9-17.5l9.6,39.7h26.5l14.7-21.4L486.3,35.4z M258.6,50.3
			v-7.5h22.7l0.2,7.5H258.6z"/>
		<polygon class="st1" points="23.2,84.6 10.3,66.8 31.2,66.8 43.1,84.6 		"/>
		<polygon class="st1" points="107.8,66.8 86.9,66.8 95.9,84.6 115.7,84.6 		"/>
		<polygon class="st1" points="114.8,66.8 122.3,84.6 142.1,84.6 135.7,66.8 		"/>
		<polygon class="st1" points="177.5,66.8 181.7,84.6 227.9,84.6 226.3,66.8 		"/>
		<polygon class="st1" points="282,66.8 280.7,84.6 234.5,84.6 233.2,66.8 		"/>
		<polygon class="st1" points="289,66.8 309.9,66.8 307.1,84.6 287.3,84.6 		"/>
		<polygon class="st1" points="316.8,66.8 313.7,84.6 333.5,84.6 337.7,66.8 		"/>
		<polygon class="st1" points="344.7,66.8 340.1,84.6 359.9,84.6 365.6,66.8 		"/>
		<polygon class="st1" points="372.6,66.8 366.5,84.6 386.4,84.6 393.5,66.8 		"/>
		<polygon class="st1" points="400.4,66.8 393,84.6 412.8,84.6 421.3,66.8 		"/>
		<polygon class="st1" points="470.1,66.8 459,84.6 478.8,84.6 491,66.8 		"/>
		<polygon class="st1" points="149.6,66.8 155.3,84.6 175.1,84.6 170.5,66.8 		"/>
		<polygon class="st1" points="59.1,66.8 80,66.8 89.3,84.6 69.5,84.6 		"/>
		<path class="st0" d="M65.1,42.8h-6.8l-3.1,11.8H41.5l3.3-11.8H38l-6.9,24H10.3L28.2,9.3h19.4l-3.1,10.9h6.6L48,31.3h13.3l2.9-11.1
			h6.6l2.7-10.8h19.4L80,66.9H59.1L65.1,42.8z"/>
		<path class="st0" d="M99.3,9.4h19.4l-10.8,57.5H87L99.3,9.4z"/>
		<path class="st0" d="M183.3,9.4h45.2l-0.4,10.8h-26.2l-0.8,11.1h26.6l-0.5,11.5h-27l-0.9,11.8h27.4l-0.5,12.2h-48.7L183.3,9.4z"/>
		<path class="st0" d="M235,9.4h45.2l0.3,10.8h-26.2l-0.1,34.4h27.4l0.4,12.2h-48.8L235,9.4z"/>
		<path class="st0" d="M315,42.8h-6.8l1.6,24h-20.9l-2.3-57.5h45.2l2.2,21.9h-6.5l0.5,5.7h6.7l3,29.8h-20.9L315,42.8z M306.8,20.2
			l0.7,11.1h6.7l-0.8-11.1H306.8z"/>
		<path class="st0" d="M390.1,9.4h45.2l2.6,10.8h-26.2l2.3,11.1h26.6l2.8,11.5h-27l5,24h-20.9L390.1,9.4z"/>
		<path class="st0" d="M457.6,20.2h-13.1l-2.7-10.8H487l3.4,10.8h-13.1L491,66.8h-20.9L457.6,20.2z"/>
		<path class="st0" d="M152.1,48.6h-6.8L147,37h-6.7l-4.6,29.8h-20.9l10.3-57.5h19.4l-1.7,10.8h6.6l-1.6,11.1h6.7l3-21.9h19.4
			l-6.3,57.5h-20.9L152.1,48.6z"/>
		<path class="st0" d="M383.6,9.4h-45.2l6.3,57.5h20.9l-2.5-18.2h6.8l2.6,18.2h21L383.6,9.4z M368.4,30.4h3.3l1.6,10.5h-4.5
			l-0.6-3.8h-6.7l0.5,3.8h-4.5l-1.4-10.5h3.3l-0.4-2.8h-7.7l-0.9-7.4h8.7l0.9,6.5h6.6l-0.9-6.5h8.7l1.2,7.4h-7.7L368.4,30.4z"/>
	</g>
</g>
</svg>
