<?xml version="1.0" encoding="utf-8"?>
<!-- Generator: Adobe Illustrator 23.0.1, SVG Export Plug-In . SVG Version: 6.00 Build 0)  -->
<svg version="1.1" id="Layer_1" xmlns="http://www.w3.org/2000/svg" xmlns:xlink="http://www.w3.org/1999/xlink" x="0px" y="0px"
	 viewBox="0 0 373 87.3" style="enable-background:new 0 0 373 87.3;" xml:space="preserve">
<style type="text/css">
	.st0{fill:#FFFFFF;}
</style>
<g>
	<g>
		<path class="st0" d="M266.7,87.2c-2.2,0-4.4-1-5.9-2.6c-0.8-0.8-0.7-1.1,0.2-1.8c0.2-0.2,0.5-0.3,0.7-0.5c1.8-1.3,1.8-1.3,3.6,0
			c0.6,0.5,1.4,0.8,2.2,0.8c0.7,0,1.3-0.5,1.5-1.2c0.1-0.6-0.2-1.3-0.8-1.5c-0.5-0.3-1.1-0.4-1.6-0.6c-1.2-0.4-2.3-0.9-3.4-1.6
			c-2.4-1.6-3-4.7-1.4-7.1c0.4-0.6,0.9-1.1,1.5-1.5c3.2-2,7.4-1.6,10.2,1c0.9,0.9,0.8,1.1-0.1,1.9c-0.2,0.2-0.5,0.3-0.7,0.5
			c-1.7,1.3-1.7,1.3-3.5,0c-0.6-0.5-1.3-0.7-2.1-0.5c-0.4,0.1-0.7,0.4-0.8,0.8c-0.2,0.5,0,1,0.4,1.2c0.4,0.2,0.8,0.4,1.2,0.6
			c1.3,0.5,2.6,1.1,3.9,1.8c3.9,2.3,3,7,0.2,8.9C270.3,86.9,268.5,87.4,266.7,87.2z"/>
		<path class="st0" d="M240,68.3c-5.2-0.2-9.6,3.9-9.7,9.2c-0.2,5.2,3.9,9.6,9.2,9.7c5.2,0.2,9.6-3.9,9.7-9.2c0,0,0,0,0-0.1
			C249.3,72.8,245.2,68.5,240,68.3z M239.8,81.9L239.8,81.9c-2.4,0-4.2-1.9-4.2-4.2c0-2.3,1.9-4.2,4.2-4.1c0,0,0.1,0,0.1,0
			c2.3,0.1,4.1,2,4,4.3C243.8,80.1,242,81.9,239.8,81.9L239.8,81.9z"/>
		<path class="st0" d="M212.1,77.9c0-2.3,0-4.7,0-7c0-2.1,0-2.1,2.2-2.1c0.5,0,1,0,1.5,0c1.6,0,1.7,0.1,1.7,1.8c0,4.8,0,9.6,0,14.4
			c0,1.6-0.1,1.7-1.8,1.7c-0.7,0-1.5,0-2.2,0c-1.2-0.1-1.4-0.2-1.4-1.4C212.1,82.8,212.2,80.4,212.1,77.9L212.1,77.9z"/>
		<path class="st0" d="M193.7,69.6c-1.2-0.5-2.5-0.7-3.9-0.8c-1.8,0-3.7,0-5.5,0c-1.6,0-1.7,0.1-1.7,1.7c0,2.4,0,4.8,0,7.2h0
			c0,2.6,0,5.2,0,7.7c0,1.1,0.2,1.3,1.3,1.3c2.1,0,4.2,0.1,6.4-0.1c2.3-0.1,4.4-0.9,6.1-2.4C200.4,81,200.6,72,193.7,69.6z
			 M193.3,80.1c-0.6,1.4-3.4,2.5-4.9,2c-0.6-0.2-0.6-0.6-0.6-1.1c0-1.1,0-2.2,0-3.3h0c0-1.1,0-2.2,0-3.3c0-0.7,0.3-1.1,1-1
			c1.6,0.1,3.3,0.2,4.3,1.7C194,76.6,194.1,78.5,193.3,80.1z"/>
		<path class="st0" d="M169.6,75.1c0,1.5,0,3.1,0,4.6c-0.2,4.8-3,7.5-7.8,7.5c-0.3,0-0.7,0-1,0c-4.3-0.2-6.7-2.4-7.1-6.7
			c-0.3-3.5-0.1-7-0.1-10.5c0-0.9,0.4-1.2,1.3-1.2c0.9,0,1.7,0,2.6,0c1.2,0,1.3,0.2,1.4,1.4c0,2.4,0,4.8,0,7.2c0,0.7,0,1.5,0.1,2.2
			c0.2,1.9,1,2.7,2.7,2.7c1.7,0,2.5-0.8,2.7-2.7c0.1-0.8,0.1-1.6,0.1-2.4c0-2.3,0-4.7,0-7c0-1.3,0.2-1.4,1.4-1.4c0.9,0,1.7,0,2.6,0
			c0.9,0,1.2,0.4,1.2,1.3C169.6,71.7,169.6,73.4,169.6,75.1L169.6,75.1z"/>
		<path class="st0" d="M130.8,80c0-1.8,0-3.6,0-5.3c0-0.8-0.3-1.2-1.1-1.1c-1,0-2.1,0-3.1,0c-0.5,0.1-1-0.3-1.1-0.8
			c0-0.1,0-0.2,0-0.2c0-0.1,0-0.2,0-0.3c0-3.9-0.2-3.3,3.1-3.3c3.7,0,7.3,0,11,0c1.8,0,1.8,0.1,1.8,1.8c0,3.2,0.2,2.9-2.9,2.9
			c-2.4,0-2.5-0.3-2.5,2.4c0,2.8,0,5.6,0,8.4c0,2.4,0,2.4-2.5,2.4c-0.5,0-0.9,0-1.4,0c-1.3-0.1-1.4-0.2-1.4-1.4
			C130.8,83.6,130.8,81.8,130.8,80L130.8,80z"/>
		<path class="st0" d="M105.6,87.2c-2-0.2-4-1.1-5.3-2.6c-0.8-0.8-0.7-1.1,0.1-1.8c0.1-0.1,0.3-0.2,0.4-0.3c0.6-0.5,1.3-0.9,2-1.3
			c0.9-0.3,1.3,0.8,1.9,1.2c0.7,0.5,1.5,0.7,2.3,0.7c0.7,0,1.2-0.5,1.3-1.2c0.1-0.6-0.2-1.2-0.7-1.4c-0.5-0.3-1-0.5-1.6-0.7
			c-1.3-0.4-2.5-1-3.6-1.7c-2.3-1.6-3-4.7-1.4-7.1c0.4-0.6,0.9-1.1,1.5-1.5c3.2-2,7.3-1.6,10,0.9c1,1,1,1.2,0,2
			c-0.3,0.2-0.5,0.4-0.8,0.6c-1.6,1.2-1.6,1.2-3.3,0c-0.5-0.4-1.1-0.7-1.7-0.7c-0.6-0.1-1.1,0.3-1.3,0.9c-0.2,0.7,0.2,1.1,0.7,1.4
			c0.4,0.2,0.8,0.4,1.3,0.5c1.2,0.5,2.3,1,3.4,1.6c4.1,2.3,3.1,7.3,0.1,9.2C109.4,87,107.5,87.4,105.6,87.2z"/>
	</g>
	<g>
		<path class="st0" d="M357.3,0.1c4.2,0,8.4,0,12.6,0c0.5,0,1,0,1.5,0c1.1,0.1,1.5,0.5,1.6,1.6c0,3.5,0.1,7,0,10.5
			c0,1.2-0.5,1.6-1.7,1.7c-0.6,0-1.1,0-1.7,0c-8.1,0-16.3,0-24.4,0c-3.1,0-6.1,1-8.4,2.9c-6,4.9-6.9,13.7-2,19.7
			c0.7,0.9,1.5,1.6,2.4,2.3c1.2,0.9,2.5,1.4,4,1.4c2.1,0.3,4-1.2,4.2-3.2c0-0.2,0-0.4,0-0.7c0.1-2,0-4,0-6c0-0.5,0-0.9,0.1-1.4
			c0-0.7,0.6-1.2,1.2-1.2c0.5,0,0.9,0,1.4,0c7.4,0,14.8,0,22.2,0c0.4,0,0.8,0,1.2,0c1.1,0.1,1.4,0.4,1.5,1.5c0,0.4,0,0.8,0,1.2
			c0,7.5,0,14.9,0,22.4c0,0.3,0,0.7,0,1c-0.1,1.1-0.5,1.5-1.6,1.6c-1.4,0.1-2.9,0-4.3,0c-2,0-3.9,0-5.9,0c-1.6,0-2-0.4-2-2.1
			c0-2.8,0-5.5,0-8.3c0-2.5-1-3.4-3.5-3.5c-2.1,0-4.2,0-6.4,0c-2.7,0-3.9,1.2-4,3.9c0,2.5,0,5,0,7.6c0,2-0.4,2.4-2.3,2.2
			c-9.4-1-16.6-5.4-21.4-13.5c-5.3-9-5.5-18.4-0.3-27.5c5.2-9.2,13.4-13.9,24-14.2C349.2,0,353.3,0.1,357.3,0.1L357.3,0.1z"/>
		<path class="st0" d="M255.8,27.7c0-8.1,0-16.2,0-24.3c0-0.5,0-1,0-1.5c0.1-1.3,0.4-1.7,1.8-1.8c1.4-0.1,2.8,0,4.1,0
			c11,0,21.9,0,32.9,0c0.3,0,0.7,0,1,0c1.2,0.1,1.7,0.5,1.7,1.7c0.1,1.6,0,3.2,0,4.8c0,4.4,2.7,7.2,7.2,7.3c1.5,0.1,3,0,4.5,0
			c1.8,0,2.1,0.3,2.1,2.1c0,3.6,0,7.2,0,10.8c0,8.5,0,17,0,25.5c0,0.5,0,1,0,1.5c-0.1,1-0.5,1.5-1.5,1.5c-3.6,0-7.1,0.1-10.7,0
			c-1.2,0-1.5-0.5-1.6-1.8c0-0.6,0-1.3,0-1.9c0-11-0.1-22,0-33.1c0-3-0.9-4.9-4.8-4.8c-6.5,0.1-13.1,0-19.6,0c-0.5,0-0.9,0-1.4,0
			c-1.4,0.1-1.7,0.4-1.8,1.8c-0.1,1.3,0,2.5,0,3.8c0,11,0,21.9,0,32.9c0,3-0.1,3.1-3.1,3.1c-2.8,0-5.6,0-8.4,0c-2,0-2.3-0.4-2.3-2.3
			C255.8,44.7,255.8,36.2,255.8,27.7z"/>
		<path class="st0" d="M248.7,34.6c0,5.9,0,11.7,0,17.6c0,0.5,0,0.9,0,1.4c-0.1,1.5-0.4,1.9-1.8,1.9c-3.4,0-6.8,0-10.2,0
			c-1.4,0-1.8-0.4-1.9-1.9c0-2,0-3.9,0-5.9c0-0.6,0-1.3,0-1.9c-0.1-3-1.1-4.1-4-4.1c-3.6,0-7.1,0-10.7-0.1c-1.2,0-2.4,0-3.6,0
			c-1.3-0.1-1.7-0.4-1.8-1.8c0-3.4,0-6.8,0-10.2c0-1.5,0.4-1.9,2-1.9c4.3,0,8.6,0,12.9,0c0.7,0,1.5,0,2.2-0.1
			c1.6-0.1,2.9-1.5,2.9-3.1c0.1-2.5,0.1-4.9,0-7.4c0-1.7-1.3-3.1-3-3.2c0,0,0,0,0,0c-4.1-0.2-8.3-0.2-12.4,0.1
			c-6.9,0.9-12.1,6.7-12.3,13.6c-0.1,7.8,0,15.6-0.1,23.4c0,0.9,0,1.7,0,2.6c-0.1,1.3-0.4,1.7-1.6,1.7c-3.4,0-6.9,0-10.3,0
			c-1.4,0-1.7-0.4-1.8-1.8c-0.1-2,0-4,0-6c0-6.8-0.1-13.5,0.1-20.3c0.1-6.3,2.3-12.3,6.4-17.1c5-6.2,12.5-10,20.5-10.2
			c4.2-0.2,8.4-0.1,12.6,0c1.8,0,2.1,0.3,2.1,2.2c0,1.5,0,3,0,4.5c0.1,4.3,2.8,7.1,7.1,7.2c1.3,0,2.6,0,4,0c2.5,0,2.7,0.2,2.7,2.6
			C248.7,22.6,248.7,28.6,248.7,34.6L248.7,34.6z"/>
		<path class="st0" d="M186.5,20.9c0,5.9,0,11.7,0,17.6c0,0.5,0,0.9,0,1.4c-0.1,1.3-0.5,1.7-1.8,1.8c-1.7,0.1-3.3,0-5,0
			c-1.3,0-2.5,0.3-3.6,0.9c-2,1.1-3.3,3.2-3.4,5.5c-0.1,1.8,0,3.6-0.1,5.3c0,1.6-0.4,2-2.1,2c-4.4,0-8.7,0.1-13.1-0.1
			c-13.4-0.7-24.5-10.8-26.4-24.1c-0.1-0.7-0.1-1.4-0.1-2.1c0-1.4,0.3-1.8,1.7-1.8c2,0,4,0,6,0c1.3,0,2.6,0,4,0
			c1.6,0,1.9,0.2,2.1,1.9c0.3,2.2,1.1,4.2,2.3,6.1c2.5,3.8,6.7,6.2,11.3,6.3c3.4,0.1,6.9,0.1,10.3,0c2.5,0,3.8-1.3,3.8-3.8
			c0-7.2,0-14.5,0-21.7c0-1.8-0.3-2.1-2.1-2.1c-7.5,0-15,0-22.6,0c-2.8,0-3-0.2-3-3c0-2.8,0-5.6,0-8.4c0-2.1,0.3-2.4,2.4-2.4
			c8.6,0,17.2,0,25.8,0c3.7,0,7.3,0,11,0c2,0,2.3,0.4,2.3,2.3C186.5,8.5,186.5,14.7,186.5,20.9L186.5,20.9z"/>
		<path class="st0" d="M97,0.1C81.7,0.1,68.1,12,68.2,28.7C68.3,45.2,81.8,57,97.1,56.9c15.7,0.1,28.4-12.6,28.5-28.3
			C125.7,13,113,0.2,97.3,0.1C97.2,0.1,97.1,0.1,97,0.1L97,0.1z M97,42.3c-6.6,0-14-5.6-13.8-13.8c0.1-7.6,6.2-13.7,13.8-13.6
			c7.6,0.1,13.7,6.2,13.6,13.8C110.6,36.2,104.5,42.3,97,42.3z"/>
		<path class="st0" d="M0,27.7c0-8.2,0-16.4,0-24.6c0-2.9,0.2-3,3-3c14.4,0,28.7,0,43.1,0c2.1,0,2.4,0.3,2.4,2.4c0,1.5,0,3,0,4.5
			c-0.1,3.7,2.9,6.8,6.6,6.9c0,0,0,0,0.1,0c1.7,0.1,3.3,0,5,0.1c1.8,0,2,0.3,2.1,2.1c0,0.3,0,0.6,0,0.9c0,11.8,0,23.5,0,35.3
			c0,3.2,0,3.2-3.3,3.3c-2.5,0-5.1,0-7.6,0c-3,0-3-0.1-3-3c0-11.2,0-22.5,0-33.7c0-0.4,0-0.8,0-1.2c0.1-1.8-1.2-3.4-3.1-3.6
			c-0.2,0-0.3,0-0.5,0c-1.1,0-2.2,0-3.3,0c-1.8-0.1-3.4,1.4-3.5,3.2c0,0.1,0,0.2,0,0.3c0,0.6,0,1.3,0,1.9c0,6.1,0,12.3,0,18.4
			c0,0.7,0,1.4,0,2.1c-0.1,1.3-0.4,1.7-1.7,1.7c-3.5,0-7,0-10.5,0c-1.2,0-1.6-0.5-1.7-1.7c0-0.5,0-1,0-1.5c0-6.5,0-13.1,0-19.6
			c0-0.6,0-1.1-0.1-1.7c-0.2-1.6-1.5-2.9-3.1-2.9c-1.3-0.1-2.6-0.1-4,0c-1.7,0-3.2,1.4-3.2,3.2c0,0,0,0,0,0.1c-0.1,1.3,0,2.5,0,3.8
			c0,10.4,0,20.9,0,31.3c0,0.5,0,0.9,0,1.4c-0.1,1.2-0.5,1.7-1.7,1.7c-3.5,0-7,0-10.5,0c-1.2,0-1.6-0.5-1.7-1.7c0-0.6,0-1.1,0-1.7
			C0,43.9,0,35.8,0,27.7L0,27.7z"/>
	</g>
</g>
</svg>
