<svg id="efaqkzh9m7N1" xmlns="http://www.w3.org/2000/svg" xmlns:xlink="http://www.w3.org/1999/xlink" viewBox="0 0 499.938 577.928" shape-rendering="geometricPrecision" text-rendering="geometricPrecision"><defs><filter id="efaqkzh9m7N3-filter" x="-150%" width="400%" y="-150%" height="400%"><feComponentTransfer id="efaqkzh9m7N3-filter-brightness-0" result="result"><feFuncR id="efaqkzh9m7N3-filter-brightness-0-R" type="linear" slope="10"/><feFuncG id="efaqkzh9m7N3-filter-brightness-0-G" type="linear" slope="10"/><feFuncB id="efaqkzh9m7N3-filter-brightness-0-B" type="linear" slope="10"/></feComponentTransfer></filter></defs><path d="M477.843,151.797L254.821,23.036c-2.669-1.541-7.037-1.541-9.707,0L22.094,151.797c-2.668,1.542-4.852,5.323-4.852,8.405v257.521c0,3.082,2.184,6.863,4.852,8.405L245.115,554.891c2.67,1.541,7.038,1.541,9.707,0L477.843,426.128c2.669-1.54,4.853-5.323,4.853-8.405v-257.521c-.001-3.082-2.184-6.864-4.853-8.405Z" fill="#161616"/><g filter="url(#efaqkzh9m7N3-filter)"><g><polygon points="163.982,287.353 157.562,287.353 158.949,277.636 153.223,277.462 154.785,268.091 138.125,268.091 128.581,318.59 146.629,318.59 150.967,291.865 157.388,291.865 155.826,302.276 161.899,302.451 159.644,318.59 177.518,318.59 183.418,268.091 166.758,268.091" fill="#efe365"/><polygon points="115.045,268.265 103.765,318.763 121.64,318.763 131.704,268.265" fill="#efe365"/><polygon points="184.459,318.59 227.323,318.59 227.843,308.179 203.374,308.004 204.069,297.071 228.19,297.071 228.711,287.353 204.937,287.353 205.804,276.942 229.058,276.942 229.579,268.091 189.839,268.091" fill="#efe365"/><polygon points="91.965,268.091 89.536,277.636 83.809,277.636 81.206,287.527 68.538,287.527 71.314,277.462 65.761,277.289 68.364,268.265 52.052,268.265 35.913,318.59 53.44,318.59 59.861,297.245 66.456,297.071 63.505,307.657 75.132,307.657 77.909,297.245 84.33,297.245 78.95,318.59 96.998,318.59 108.625,268.091" fill="#efe365"/><path d="M346.658,374.267h-4.195v10.588h4.073c1.431,0,2.504-.478,3.22-1.429.716-.95,1.073-2.223,1.073-3.815c0-3.564-1.39-5.344-4.171-5.344Z" fill="#efe365"/><polygon points="183.838,377.901 180.521,390.562 187.155,390.562" fill="#efe365"/><path d="M153.854,204.34c-1.903,0-3.31.752-4.22,2.256-.911,1.504-1.382,3.793-1.415,6.867v6.317c0,3.105.463,5.395,1.391,6.867.927,1.472,2.357,2.208,4.293,2.208c1.87,0,3.26-.72,4.171-2.159s1.374-3.671,1.391-6.696v-6.171c0-3.204-.456-5.586-1.366-7.147s-2.326-2.342-4.245-2.342Z" fill="#efe365"/><polygon points="320.622,221.098 317.305,208.438 313.987,221.098" fill="#efe365"/><polygon points="252.313,308.179 252.832,276.942 275.912,276.942 275.738,267.917 235.826,268.091 234.264,318.59 277.128,318.59 276.779,308.179" fill="#efe365"/><path d="M218.007,374.267h-4.195v10.588h4.074c1.431,0,2.504-.478,3.22-1.429.715-.95,1.073-2.223,1.073-3.815-.001-3.564-1.391-5.344-4.172-5.344Z" fill="#efe365"/><path d="M328.319,267.917l5.553,50.499h18.048l-2.256-16.312l6.769.172l2.432,16.313h18.048l-8.677-50.672h-39.917v0Zm26.031,17.006h3.474l1.562,9.893h-4.338l-.521-3.473h-6.247l.348,3.299h-4.165l-1.215-9.891h3.471l-.347-2.43h-6.942l-.868-6.421h7.639l.868,5.899h6.247l-.694-5.899h7.809l1.041,6.421-7.462.172.34,2.43Z" fill="#efe365"/><polygon points="395.304,287.006 393.222,276.768 416.649,276.768 414.567,267.917 374.654,267.917 383.852,318.416 401.898,318.416 397.387,297.071 421.682,297.071 419.252,287.006" fill="#efe365"/><path d="M461.595,310.086c-.347-1.214-.868-2.603-1.214-3.991-.348-1.389-.868-2.603-1.216-3.99-.521-2.084-1.214-4.338-1.908-6.422-.692-2.254-1.215-4.338-1.909-6.419-.521-2.083-1.214-4.164-1.733-6.247-.521-1.909-1.041-3.991-1.563-5.9v-.347h11.628l-2.775-9.024h-40.262l2.258,9.024h11.627l11.452,41.648h18.049c-.349-1.389-.868-2.775-1.214-4.165-.352-1.391-.873-2.777-1.22-4.167Z" fill="#efe365"/><path d="M493.968,142.091L255.165,4.218c-2.858-1.65-7.535-1.65-10.393,0L5.969,142.091c-2.858,1.65-5.196,5.7-5.196,9v275.745c0,3.3,2.338,7.35,5.196,9L244.772,573.71c2.858,1.65,7.535,1.65,10.393,0L493.968,435.836c2.858-1.648,5.196-5.7,5.196-9v-275.745c0-3.3-2.338-7.35-5.196-9ZM43.208,173.055c0-2.144,1.144-4.125,3-5.196L246.969,51.95c1.856-1.071,4.145-1.071,6,0L453.73,167.859c1.854,1.072,3,3.053,3,5.196v74.874h-12v-71.41L249.969,64.074L55.208,176.519v71.41h-12v-74.874Zm316.633,55.337v5.952h-19.759v-35.516h7.172v29.564h12.587Zm-28.071,5.951h-7.658l-1.902-7.269h-9.781l-1.9,7.269h-7.586l11.099-35.516h6.562l11.166,35.516Zm-37.975-35.515v35.516h-7.172v-35.516h7.172ZM260.54,226.903c.788,1.317,2.144,1.976,4.062,1.976c1.888,0,3.188-.459,3.902-1.378.717-.918,1.122-2.581,1.221-4.988h7.172c-.181,4.049-1.316,7.115-3.416,9.196-2.098,2.081-5.058,3.122-8.879,3.122-4.017,0-7.095-1.321-9.23-3.964-2.141-2.642-3.208-6.411-3.208-11.306v-5.977c0-4.878,1.104-8.639,3.315-11.281c2.211-2.643,5.285-3.964,9.223-3.964c3.87,0,6.809,1.082,8.816,3.244c2.008,2.163,3.149,5.269,3.429,9.318h-7.196c-.064-2.504-.451-4.232-1.158-5.183-.708-.952-2.005-1.427-3.891-1.427-1.919,0-3.277.671-4.074,2.013-.797,1.341-1.22,3.549-1.27,6.623v6.708c-.001,3.529.393,5.951,1.182,7.268ZM241.8,198.828v35.516h-7.172v-35.516h7.172Zm-17.924,15.074v5.952h-11.147v14.489h-7.171v-35.516h19.66v5.976h-12.489v9.099h11.147Zm-28.754,0v5.952h-11.147v14.489h-7.171v-35.516h19.66v5.976h-12.489v9.099h11.147Zm-28.461-.195v6.074c0,4.765-1.126,8.464-3.378,11.099-2.252,2.634-5.378,3.952-9.379,3.952-3.984,0-7.115-1.305-9.391-3.915-2.277-2.61-3.432-6.265-3.464-10.964v-6.074c0-4.878,1.13-8.688,3.391-11.428c2.26-2.74,5.399-4.11,9.416-4.11c3.952,0,7.065,1.346,9.342,4.037c2.275,2.69,3.43,6.467,3.463,11.329ZM456.729,404.872c0,2.145-1.144,4.124-3,5.195L252.968,525.977c-.928.535-1.964.805-3,.805s-2.072-.27-3-.805L46.208,410.067c-1.856-1.071-3-3.053-3-5.195v-52.872h12v49.408L249.969,513.854L444.73,401.408v-49.408h12v52.872h-.001Zm-314.012-1.064v-35.517h12.099c3.513,0,6.313,1.09,8.403,3.269c2.089,2.181,3.134,5.01,3.134,8.488s-1.033,6.229-3.098,8.245-4.927,3.024-8.586,3.024h-4.781v12.488h-7.171v.003v0Zm26.754,0l11.099-35.517h6.562l11.172,35.517h-7.659l-1.903-7.271h-9.781l-1.903,7.271h-7.587Zm60.952-.343v.343h-7.708l-5.342-12.979h-3.561v12.979h-7.171v-35.517h11.44c3.594,0,6.371.931,8.33,2.793c1.96,1.86,2.939,4.508,2.939,7.938c0,4.717-1.716,8.019-5.147,9.902l6.22,14.541Zm6.02-29.198v-5.976h24.612v5.976h-8.781v29.541h-7.194v-29.541h-8.637v0Zm33.73,29.541v-35.517h7.173l10.512,23.317v-23.317h7.147v35.517h-7.171l-10.488-23.295v23.295h-7.173Zm53.928-21.15v5.78h-11.172v9.416h13.223v5.951h-20.395v-35.515h20.344v5.977h-13.172v8.393l11.172-.002v0Zm34.973,20.807v.343h-7.708l-5.342-12.979h-3.563v12.979h-7.172v-35.517h11.439c3.595,0,6.369.931,8.329,2.793c1.96,1.86,2.939,4.508,2.939,7.938c0,4.717-1.716,8.019-5.146,9.902l6.224,14.541Zm91.24-66.307h-21.173l-8.153-33.492-9.371,13.015h-6.595l.521,2.604-12.495,18.047h-228.372l-5.206-10.761-1.562,10.761h-67.331L81.553,326.92h-5.553l-1.388-1.388-3.124,11.8h-20.65L31.922,319.978l17.701-55.01h20.998l9.717,13.188l1.042-3.817h5.727l2.43-9.371l21.519-.173l1.041,1.909.347-1.909h21.692l.868,1.909.347-1.909h21.866l3.818,9.718h.521l.694,1.734l1.735-11.453h22.213l.521,1.736.173-1.736h45.64l.132,1.204.042-1.204l46.16-.173.04,1.46.134-1.46h45.813l.176,1.909.52-1.909h45.466l.35,1.909.866-1.909h44.945l.521,1.735l1.041-1.735h44.599l4.165,13.188-8.851,10.587v.174c.692,2.082,1.215,4.164,1.906,6.248.521,1.563,3.125,9.892,3.125,9.892l1.39,4.687c.347,1.391.866,2.776,1.215,4.166l1.215,4.164.521,1.907-17.709,17.524Z" fill="#efe365"/><polygon points="256.303,297.767 256.129,304.706 277.771,304.706 277.54,297.767" fill="#efe365"/><path d="M318.428,292.386l-.52-5.553h5.897l-1.906-18.741h-39.915l1.91,50.499h18.048l-1.39-21.52l6.77.175l1.562,21.345h18.048l-2.603-26.204-5.901-.001v0Zm-18.221-5.033l-.694-10.411h6.421l.694,10.411h-6.421Z" fill="#efe365"/><path d="M157.986,384c.748-.896,1.122-2.194,1.122-3.903c0-1.771-.382-3.184-1.146-4.23-.764-1.049-1.789-1.581-3.073-1.6h-5v11.074h4.927c1.366,0,2.422-.445,3.17-1.341Z" fill="#efe365"/></g></g></svg>
